HIERARCHY
ROOT root
{
	OFFSET 0.000000 0.000000 0.000000
	CHANNELS 6 Xposition Yposition Zposition Zrotation Yrotation Xrotation
	JOINT lhip
	{
		OFFSET 0.058581 -0.082280 -0.017664
		CHANNELS 3 Zrotation Yrotation Xrotation
		JOINT lknee
		{
			OFFSET 0.043451 -0.386469 0.008037
			CHANNELS 3 Zrotation Yrotation Xrotation
			JOINT lankle
			{
				OFFSET -0.014790 -0.426874 -0.037428
				CHANNELS 3 Zrotation Yrotation Xrotation
				JOINT ltoe
				{
					OFFSET 0.041054 -0.060286 0.122042
					CHANNELS 3 Zrotation Yrotation Xrotation
					End Site
					{
						OFFSET 0.000000 0.000000 0.000000
					}
				}
			}
		}
	}
	JOINT rhip
	{
		OFFSET -0.060310 -0.090513 -0.013543
		CHANNELS 3 Zrotation Yrotation Xrotation
		JOINT rknee
		{
			OFFSET -0.043257 -0.383688 -0.004843
			CHANNELS 3 Zrotation Yrotation Xrotation
			JOINT rankle
			{
				OFFSET 0.019056 -0.420046 -0.034562
				CHANNELS 3 Zrotation Yrotation Xrotation
				JOINT rtoe
				{
					OFFSET -0.034840 -0.062106 0.130323
					CHANNELS 3 Zrotation Yrotation Xrotation
					End Site
					{
						OFFSET 0.000000 0.000000 0.000000
					}
				}
			}
		}
	}
	JOINT lowerback
	{
		OFFSET 0.004439 0.124404 -0.038385
		CHANNELS 3 Zrotation Yrotation Xrotation
		JOINT upperback
		{
			OFFSET 0.004488 0.137956 0.026820
			CHANNELS 3 Zrotation Yrotation Xrotation
			JOINT chest
			{
				OFFSET -0.002265 0.056032 0.002855
				CHANNELS 3 Zrotation Yrotation Xrotation
				JOINT lowerneck
				{
					OFFSET -0.013390 0.211636 -0.033468
					CHANNELS 3 Zrotation Yrotation Xrotation
					JOINT upperneck
					{
						OFFSET 0.010113 0.088937 0.050410
						CHANNELS 3 Zrotation Yrotation Xrotation
						End Site
						{
							OFFSET 0.000000 0.000000 0.000000
						}
					}
				}
				JOINT lclavicle
				{
					OFFSET 0.071702 0.114000 -0.018898
					CHANNELS 3 Zrotation Yrotation Xrotation
					JOINT lshoulder
					{
						OFFSET 0.122921 0.045205 -0.019046
						CHANNELS 3 Zrotation Yrotation Xrotation
						JOINT lelbow
						{
							OFFSET 0.255332 -0.015649 -0.022946
							CHANNELS 3 Zrotation Yrotation Xrotation
							JOINT lwrist
							{
								OFFSET 0.265709 0.012698 -0.007375
								CHANNELS 3 Zrotation Yrotation Xrotation
								End Site
								{
									OFFSET 0.000000 0.000000 0.000000
								}
							}
						}
					}
				}
				JOINT rclavicle
				{
					OFFSET -0.082954 0.112472 -0.023707
					CHANNELS 3 Zrotation Yrotation Xrotation
					JOINT rshoulder
					{
						OFFSET -0.113228 0.046853 -0.008472
						CHANNELS 3 Zrotation Yrotation Xrotation
						JOINT relbow
						{
							OFFSET -0.260127 -0.014369 -0.031269
							CHANNELS 3 Zrotation Yrotation Xrotation
							JOINT rwrist
							{
								OFFSET -0.269108 0.006794 -0.006027
								CHANNELS 3 Zrotation Yrotation Xrotation
								End Site
								{
									OFFSET 0.000000 0.000000 0.000000
								}
							}
						}
					}
				}
			}
		}
	}
}
MOTION
Frames: 8
Frame Time: 0.033333
0.035034 0.272722 1.026604 -179.485526 1.762731 98.780244 5.312363 4.032920 -4.051022 2.255901 -9.064369 -4.657184 -7.760967 14.886858 -3.742975 0.000000 -0.000000 0.000000 -0.228898 -3.083250 -5.672029 -0.282478 8.875416 0.668804 9.825009 -14.787354 -5.218688 0.000000 -0.000000 0.000000 1.255206 1.654676 0.779061 0.190140 -4.599066 -15.502726 4.978159 2.060593 -2.684271 -5.060628 1.311556 -22.743148 6.835294 6.436203 -39.986073 41.692049 -22.635263 -31.117345 27.610031 -22.835113 -38.626503 9.463886 -10.034797 -33.105446 -1.673716 -20.337665 -22.780957 -43.415600 19.945964 -29.352254 -18.968047 26.055053 -33.164352 -17.236484 19.502152 -25.382628 -3.292613 16.082986 -26.315122 
0.035898 0.269826 1.025080 -179.729474 1.800685 98.248066 5.402185 4.327662 -3.869240 2.192369 -8.680634 -4.083726 -7.644722 13.966528 -4.123459 0.000000 -0.000000 0.000000 -0.298980 -3.542826 -5.659537 -0.105022 8.019087 1.332801 9.780035 -13.059365 -5.259804 0.000000 -0.000000 0.000000 1.241213 1.813334 1.092617 0.065834 -4.551249 -14.270609 4.739386 2.187731 -3.096177 -5.363134 0.779305 -17.420921 7.564946 6.235976 -39.478403 40.075752 -21.579972 -29.402645 24.350359 -21.531569 -34.964523 14.053026 -19.675132 -30.989497 -2.753467 -19.866189 -19.438749 -41.421370 19.423023 -27.242098 -15.981831 23.235134 -30.798881 -21.380451 29.578477 -25.758913 -3.224987 16.882658 -24.360338 
0.036853 0.266651 1.023129 -179.982339 1.772939 97.699363 5.418909 4.274370 -3.540267 2.179738 -8.006240 -3.628476 -7.382323 13.189767 -4.616223 0.000000 -0.000000 0.000000 -0.411744 -3.713370 -5.510729 -0.085748 7.112298 1.884165 9.875381 -11.440421 -5.422660 0.000000 -0.000000 0.000000 1.111941 1.911082 1.399372 -0.096633 -4.456632 -13.293741 4.496661 2.322290 -3.212324 -5.352723 0.505501 -12.349968 8.036220 6.246670 -37.907652 37.438985 -20.237768 -28.035444 21.465416 -20.947306 -31.281899 19.398308 -30.536303 -30.470041 -2.984098 -20.079348 -16.930859 -38.636297 18.568264 -25.099116 -12.788306 20.900316 -27.992361 -27.907937 40.300308 -29.275244 -3.928481 18.097307 -24.045667 
0.038078 0.263248 1.021085 179.884724 1.722892 97.150874 5.456068 4.333566 -3.174231 2.153448 -7.571694 -3.233968 -7.163528 12.326396 -5.048590 0.000000 -0.000000 0.000000 -0.553729 -3.838400 -5.368661 0.025156 6.431764 2.532742 9.829017 -10.298000 -5.670838 0.000000 -0.000000 0.000000 0.803454 1.927621 1.411044 0.099853 -4.335141 -11.751802 4.160452 2.383352 -3.514011 -5.403141 0.398014 -7.511013 8.083111 5.817417 -36.238264 34.104336 -18.965803 -25.376362 19.178183 -19.634408 -27.600131 26.647552 -41.564184 -32.366892 -0.282447 -20.084199 -15.681441 -35.025918 17.676327 -22.752935 -10.063744 19.136854 -25.114301 -37.914089 50.603971 -36.611935 -5.239716 19.163740 -25.273236 
0.039067 0.259362 1.018934 179.931090 1.693383 96.566793 5.499192 4.293071 -2.675160 2.204804 -7.170022 -3.077772 -6.749754 11.316064 -5.434693 0.000000 -0.000000 0.000000 -0.733645 -3.943818 -5.306077 0.130811 5.590337 3.488187 9.766604 -9.002516 -5.943785 0.000000 -0.000000 0.000000 0.561391 1.835417 1.590246 0.176880 -4.136999 -10.665014 3.883102 2.673362 -3.725058 -5.399731 0.046254 -3.733260 8.145566 5.082799 -33.234661 30.421099 -17.425375 -23.621548 16.211376 -20.222847 -24.046685 36.154997 -51.807277 -37.232273 1.957652 -19.815522 -13.637238 -30.888158 17.051729 -19.875247 -7.582296 17.477144 -22.471287 -52.440588 58.986552 -48.071412 -5.884523 20.072498 -25.023642 
0.040308 0.254856 1.017079 179.931116 1.664040 95.980852 5.585736 4.324203 -2.292767 2.112044 -6.589574 -2.668532 -6.715874 10.175966 -5.944139 0.000000 -0.000000 0.000000 -0.890654 -3.817832 -5.176878 0.134833 4.161659 4.393915 9.787204 -7.308100 -6.234829 0.000000 -0.000000 0.000000 0.302047 1.631946 1.927982 0.443074 -4.007941 -9.936996 3.521382 2.805431 -3.877791 -5.024034 0.418748 -1.134597 7.876999 3.578646 -29.782988 26.670721 -15.668390 -21.951116 12.311263 -21.186421 -20.480973 49.953906 -61.078730 -45.865617 3.108305 -19.727767 -10.934138 -25.906582 15.941771 -18.229728 -4.867693 18.253782 -19.978986 -70.526520 65.591053 -62.508227 -5.294612 21.125492 -23.036058 
0.041689 0.250274 1.015447 -179.942360 1.590024 95.534853 5.630899 3.907605 -2.051874 1.999637 -5.383564 -2.217772 -6.619953 8.893411 -6.398416 0.000000 -0.000000 0.000000 -1.021204 -3.542357 -5.034375 0.020421 2.569998 5.095269 9.730262 -5.868780 -6.556088 0.000000 -0.000000 0.000000 -0.144595 1.453050 1.854085 0.853086 -3.860560 -9.062139 3.243762 2.754222 -4.262214 -4.462035 0.724042 1.099346 6.953947 2.371240 -25.880681 22.206377 -14.286930 -20.023911 8.121410 -22.696527 -17.029272 69.627637 -68.613556 -60.837417 1.206737 -20.852066 -8.502513 -20.529508 15.097761 -16.142119 -1.960091 19.463133 -16.977334 -93.771691 69.270446 -82.093844 -3.204317 22.863784 -20.804018 
0.042839 0.246093 1.014009 -179.791338 1.456213 95.377818 5.552592 3.422500 -2.101765 1.956076 -4.111915 -1.861623 -6.112000 7.618236 -6.756401 0.000000 -0.000000 0.000000 -1.213419 -3.393579 -5.192798 -0.046018 1.342246 5.802764 9.523196 -4.739939 -6.850327 0.000000 -0.000000 0.000000 -0.443266 1.393162 1.509835 1.155048 -3.648954 -8.358961 2.848406 2.494064 -4.761835 -4.121961 0.578932 2.638813 5.924011 1.651784 -21.608548 17.188687 -13.581786 -18.049712 4.047580 -23.895365 -13.223199 96.896438 -73.811648 -84.222634 -2.532380 -22.119791 -4.576244 -15.164794 14.685776 -14.027194 1.678352 20.124234 -13.148010 -118.906652 69.712426 -104.245370 1.528261 24.883259 -16.819375 
